<?xml version="1.0" standalone="no"?><!DOCTYPE svg PUBLIC "-//W3C//DTD SVG 1.1//EN" "http://www.w3.org/Graphics/SVG/1.1/DTD/svg11.dtd"><svg t="1615290013904" class="icon" viewBox="0 0 1024 1024" version="1.1" xmlns="http://www.w3.org/2000/svg" p-id="2996" xmlns:xlink="http://www.w3.org/1999/xlink" width="200" height="200"><defs><style type="text/css"></style></defs><path d="M206.933333 601.6s0-2.133333-2.133333-2.133333C168.533333 541.866667 149.333333 473.6 149.333333 405.333333 149.333333 204.8 311.466667 42.666667 512 42.666667s362.666667 162.133333 362.666667 362.666666c0 68.266667-19.2 136.533333-55.466667 194.133334 0 0 0 2.133333-2.133333 2.133333l-232.533334 362.666667c0 2.133333-2.133333 2.133333-2.133333 4.266666-17.066667 21.333333-42.666667 36.266667-70.4 36.266667-27.733333 0-53.333333-14.933333-70.4-36.266667l-2.133333-2.133333L206.933333 601.6zM512 128c-153.6 0-277.333333 123.733333-277.333333 277.333333 0 53.333333 14.933333 104.533333 44.8 149.333334 0 0 0 2.133333 2.133333 2.133333l228.266667 354.133333c0 2.133333 2.133333 2.133333 2.133333 4.266667v2.133333-2.133333c0-2.133333 2.133333-2.133333 2.133333-4.266667l228.266667-354.133333s0-2.133333 2.133333-2.133333c29.866667-44.8 44.8-96 44.8-149.333334 0-153.6-123.733333-277.333333-277.333333-277.333333z m0 426.666667c-83.2 0-149.333333-66.133333-149.333333-149.333334s66.133333-149.333333 149.333333-149.333333 149.333333 66.133333 149.333333 149.333333-66.133333 149.333333-149.333333 149.333334z m0-213.333334c-36.266667 0-64 27.733333-64 64s27.733333 64 64 64 64-27.733333 64-64-27.733333-64-64-64z" fill="#2F3CF4" p-id="2997"></path></svg>